<?xml version="1.0" standalone="no"?>
<!DOCTYPE svg PUBLIC "-//W3C//DTD SVG 20010904//EN"
 "http://www.w3.org/TR/2001/REC-SVG-20010904/DTD/svg10.dtd">
<svg version="1.0" xmlns="http://www.w3.org/2000/svg"
 width="1000.000000pt" height="1000.000000pt" viewBox="0 0 1000.000000 1000.000000"
 preserveAspectRatio="xMidYMid meet">

<g transform="translate(0.000000,1000.000000) scale(0.100000,-0.100000)"
fill="#000000" stroke="none">
<path d="M4792 8222 c-117 -52 -211 -100 -209 -105 2 -6 49 -30 104 -55 l101
-44 34 25 c41 32 187 102 195 94 16 -16 -15 -42 -91 -77 -46 -22 -87 -44 -90
-49 -6 -9 108 -68 166 -86 15 -5 47 5 107 33 47 23 142 65 210 94 69 29 126
58 128 64 2 6 -20 21 -49 34 -29 12 -126 56 -216 96 -90 41 -166 74 -170 73
-4 0 -103 -44 -220 -97z"/>
<path d="M5255 7978 c-11 -7 -69 -34 -129 -60 l-109 -48 -54 20 c-29 11 -76
31 -103 45 -27 14 -52 25 -55 25 -3 0 -4 -46 -3 -102 l3 -103 75 -22 c149 -43
306 -18 380 62 22 23 25 37 29 111 1 46 -1 84 -5 84 -5 0 -18 -6 -29 -12z"/>
<path d="M4741 7900 c3 -45 9 -84 17 -92 9 -9 12 7 12 80 0 78 -2 92 -16 92
-14 0 -16 -12 -13 -80z"/>
<path d="M5392 7958 c4 -27 33 -36 42 -13 8 22 -1 35 -25 35 -15 0 -20 -6 -17
-22z"/>
<path d="M4205 7711 c-22 -10 -47 -26 -55 -36 -25 -30 -17 -114 18 -191 27
-60 32 -85 37 -186 8 -129 11 -133 69 -107 22 10 25 19 28 67 l3 55 68 25 c37
14 67 28 67 32 0 4 -16 15 -35 26 -29 15 -41 17 -74 8 l-39 -11 -6 56 c-13
132 -18 221 -12 221 11 0 84 -81 123 -137 20 -29 43 -53 50 -53 12 0 50 16 62
26 6 6 -67 98 -111 140 -95 90 -119 98 -193 65z"/>
<path d="M4822 7188 l3 -273 135 1 c115 0 142 4 183 22 61 27 93 88 82 155 -8
45 -60 107 -89 107 -11 0 -4 13 24 38 34 33 40 45 40 81 0 54 -22 97 -63 121
-28 17 -51 20 -175 20 l-142 0 2 -272z m259 183 c17 -13 23 -29 23 -56 0 -56
-29 -75 -115 -75 -68 0 -69 0 -70 28 -4 64 -4 107 -1 115 2 4 34 7 71 7 52 0
74 -5 92 -19z m22 -229 c15 -15 22 -34 22 -62 0 -64 -27 -82 -124 -88 l-81 -5
0 93 0 93 81 -5 c65 -4 84 -9 102 -26z"/>
<path d="M5434 7378 c12 -123 67 -186 176 -203 l45 -7 -45 46 c-24 25 -50 46
-56 46 -21 0 -56 59 -61 103 -6 45 -27 77 -51 77 -12 0 -14 -11 -8 -62z"/>
<path d="M4270 6773 c-125 -12 -318 -62 -339 -87 -9 -11 -101 -246 -256 -661
-35 -93 -80 -212 -100 -264 -20 -52 -35 -106 -33 -120 l3 -26 620 -3 620 -2
50 -49 c79 -78 120 -101 177 -101 63 0 79 9 158 86 l65 64 620 2 620 3 3 30
c2 19 -23 98 -66 210 -38 99 -111 290 -162 425 -155 411 -151 402 -186 422
-46 27 -256 67 -387 74 -235 14 -416 -39 -594 -172 l-72 -54 -85 64 c-47 35
-106 72 -133 81 -26 9 -73 28 -103 40 -85 37 -271 53 -420 38z m326 -53 c84
-11 237 -84 327 -157 l57 -46 0 -494 c0 -271 -3 -493 -6 -493 -3 0 -30 21 -58
48 -52 46 -178 116 -239 133 -18 4 -71 19 -119 33 -48 13 -127 29 -175 35
-212 26 -713 2 -713 -35 0 -22 12 -23 125 -6 156 22 525 22 665 -1 108 -17
224 -47 257 -66 13 -7 -146 -10 -554 -11 -404 0 -573 3 -573 11 0 16 47 144
150 414 51 132 105 274 120 315 90 245 91 247 132 265 55 24 93 35 178 50 88
15 325 18 426 5z m1319 -17 c151 -42 145 -35 210 -207 31 -83 77 -200 100
-261 23 -60 79 -207 123 -325 44 -118 84 -223 87 -232 7 -17 -24 -18 -576 -17
l-584 1 86 28 c216 72 639 88 947 35 38 -6 42 -5 42 13 0 22 -11 24 -180 42
-125 13 -411 13 -525 0 -225 -26 -448 -113 -556 -217 l-36 -34 -6 173 c-4 95
-7 317 -7 494 l0 321 58 46 c79 65 242 145 317 157 104 16 419 5 500 -17z"/>
<path d="M4150 6011 c-79 -7 -103 -16 -97 -34 2 -8 73 -12 238 -12 233 0 234
0 309 -28 105 -40 120 -43 120 -23 0 21 -100 68 -180 86 -67 14 -287 21 -390
11z"/>
<path d="M5535 6010 c-113 -18 -235 -68 -235 -96 0 -20 16 -17 120 23 75 28
76 28 313 28 185 0 237 3 237 13 0 7 -11 17 -25 22 -36 14 -339 21 -410 10z"/>
<path d="M3609 5550 c22 -19 41 -20 580 -20 l557 0 49 -50 c48 -49 49 -50 22
-50 l-27 0 0 -250 0 -250 30 0 30 0 0 245 0 244 36 -24 c19 -13 44 -27 55 -30
18 -6 19 -18 19 -221 l0 -214 35 0 35 0 2 191 3 192 128 -192 c118 -177 129
-191 157 -191 l30 0 0 250 0 250 -30 0 -30 0 -2 -197 -3 -197 -102 157 c-57
87 -103 161 -103 165 0 4 14 13 31 21 16 7 61 44 98 82 l68 69 555 0 c538 0
557 1 579 20 24 19 22 19 -564 20 l-588 0 -65 -68 c-35 -38 -82 -77 -105 -87
-38 -18 -42 -18 -50 -2 -11 19 -75 24 -81 6 -7 -22 -47 2 -125 76 l-78 75
-585 0 c-583 -1 -585 -1 -561 -20z"/>
<path d="M3130 5180 l0 -250 135 0 135 0 0 25 0 25 -100 0 -100 0 0 85 0 85
84 0 c47 0 87 4 90 8 3 5 2 18 -1 30 -5 20 -12 22 -89 22 l-84 0 0 80 0 79 98
3 c96 3 97 3 97 28 l0 25 -132 3 -133 3 0 -251z"/>
<path d="M3500 5180 l0 -250 98 0 c215 0 311 76 312 246 0 57 -5 80 -27 125
-47 92 -136 129 -310 129 l-73 0 0 -250z m267 164 c67 -50 97 -139 74 -223
-25 -95 -79 -132 -203 -139 l-78 -5 0 198 0 197 89 -4 c72 -2 95 -7 118 -24z"/>
<path d="M4000 5258 c0 -187 7 -232 46 -277 57 -68 204 -72 272 -8 46 42 52
77 52 273 l0 184 -30 0 -30 0 0 -175 c0 -206 -8 -237 -67 -261 -79 -33 -155 3
-173 82 -5 21 -10 110 -10 197 l0 157 -30 0 -30 0 0 -172z"/>
<path d="M4480 5180 l0 -250 120 0 120 0 0 25 c0 25 -1 25 -85 25 l-85 0 0
194 c0 239 -3 256 -41 256 l-29 0 0 -250z"/>
<path d="M5584 5406 c-63 -29 -110 -85 -130 -155 -36 -120 18 -245 130 -303
47 -24 146 -27 197 -5 88 36 148 122 149 210 l0 47 -130 0 -130 0 0 -24 c0
-29 20 -36 119 -36 l74 0 -7 -31 c-8 -42 -41 -86 -79 -106 -50 -26 -139 -21
-186 10 -76 50 -104 173 -61 261 54 113 230 132 296 31 13 -20 25 -25 55 -25
l40 0 -15 28 c-55 106 -206 152 -322 98z"/>
<path d="M6020 5246 c0 -198 6 -230 54 -275 56 -53 181 -58 248 -10 58 42 68
82 68 287 l0 182 -30 0 -30 0 0 -170 c0 -180 -7 -217 -48 -253 -30 -27 -92
-33 -135 -12 -59 28 -67 58 -67 259 l0 176 -30 0 -30 0 0 -184z"/>
<path d="M6639 5393 c-11 -29 -59 -161 -128 -350 l-40 -113 33 0 c31 0 35 3
52 53 l19 52 110 0 109 0 21 -52 c18 -49 22 -53 54 -53 22 0 32 4 29 13 -3 6
-43 117 -89 245 l-83 232 -38 0 c-33 0 -40 -4 -49 -27z m95 -181 c20 -57 36
-108 36 -113 0 -5 -38 -9 -85 -9 -47 0 -85 3 -85 7 0 25 85 241 91 231 4 -7
23 -60 43 -116z"/>
<path d="M2370 3847 c-16 -8 -26 -23 -28 -40 -2 -15 -9 -27 -18 -27 -19 0 -18
-16 1 -24 11 -4 15 -23 15 -81 0 -43 4 -75 10 -75 6 0 10 32 10 76 0 67 2 76
20 81 11 3 20 9 20 14 0 5 -9 9 -20 9 -26 0 -25 15 1 41 27 27 21 42 -11 26z"/>
<path d="M1710 3725 c0 -77 4 -125 10 -125 6 0 10 48 10 125 0 77 -4 125 -10
125 -6 0 -10 -48 -10 -125z"/>
<path d="M3590 3725 c0 -77 4 -125 10 -125 6 0 10 48 10 125 0 77 -4 125 -10
125 -6 0 -10 -48 -10 -125z"/>
<path d="M3860 3725 c0 -104 2 -125 15 -125 8 0 15 5 15 12 0 9 3 9 12 0 7 -7
28 -12 48 -12 87 0 121 113 51 167 -21 16 -84 16 -99 1 -9 -9 -12 -2 -12 35 0
35 -4 47 -15 47 -13 0 -15 -21 -15 -125z m128 19 c16 -11 22 -25 22 -54 0 -62
-58 -92 -100 -50 -24 24 -26 67 -4 98 18 26 50 28 82 6z"/>
<path d="M4300 3725 c0 -77 4 -125 10 -125 6 0 10 48 10 125 0 77 -4 125 -10
125 -6 0 -10 -48 -10 -125z"/>
<path d="M4590 3805 c0 -42 -11 -58 -25 -35 -3 6 -23 10 -44 10 -52 0 -84 -35
-84 -90 0 -55 33 -90 83 -90 20 0 41 5 48 12 9 9 12 9 12 0 0 -7 7 -12 15 -12
13 0 15 21 15 125 0 77 -4 125 -10 125 -5 0 -10 -20 -10 -45z m-21 -71 c27
-35 26 -59 -4 -89 -30 -31 -52 -31 -82 -3 -29 27 -30 71 -3 98 28 28 64 25 89
-6z"/>
<path d="M6950 3805 c0 -42 -11 -58 -25 -35 -3 6 -23 10 -44 10 -52 0 -84 -35
-84 -90 0 -55 33 -90 83 -90 20 0 41 5 48 12 9 9 12 9 12 0 0 -7 7 -12 15 -12
13 0 15 21 15 125 0 77 -4 125 -10 125 -5 0 -10 -20 -10 -45z m-21 -71 c27
-35 26 -59 -4 -89 -30 -31 -52 -31 -82 -3 -29 27 -30 71 -3 98 28 28 64 25 89
-6z"/>
<path d="M7300 3831 c0 -12 6 -21 16 -21 9 0 14 7 12 17 -5 25 -28 28 -28 4z"/>
<path d="M7510 3803 c0 -37 -3 -44 -12 -35 -16 16 -78 15 -100 -2 -24 -18 -40
-65 -33 -96 15 -58 75 -87 126 -60 13 7 19 7 19 0 0 -5 7 -10 15 -10 13 0 15
21 15 125 0 104 -2 125 -15 125 -11 0 -15 -12 -15 -47z m-22 -59 c16 -11 22
-25 22 -54 0 -41 -26 -70 -62 -70 -28 0 -58 37 -58 72 0 59 50 86 98 52z"/>
<path d="M7590 3830 c0 -11 5 -20 10 -20 6 0 10 9 10 20 0 11 -4 20 -10 20 -5
0 -10 -9 -10 -20z"/>
<path d="M1480 3721 c0 -101 2 -121 15 -121 11 0 15 11 15 40 0 40 0 40 39 40
81 0 121 29 121 88 0 47 -31 66 -116 70 l-74 4 0 -121z m156 64 c15 -23 15
-27 0 -50 -14 -22 -24 -25 -71 -25 l-55 0 0 50 0 50 55 0 c47 0 57 -3 71 -25z"/>
<path d="M2010 3810 c0 -20 -5 -30 -15 -30 -8 0 -15 -4 -15 -10 0 -5 7 -10 15
-10 12 0 15 -16 15 -80 0 -64 3 -80 15 -80 12 0 15 16 15 80 0 73 2 80 20 80
11 0 20 5 20 10 0 6 -9 10 -20 10 -16 0 -20 7 -20 30 0 20 -5 30 -15 30 -10 0
-15 -10 -15 -30z"/>
<path d="M5756 3833 c-13 -14 -4 -18 41 -18 25 0 48 5 50 10 3 11 -81 18 -91
8z"/>
<path d="M1812 3773 c-19 -7 -42 -58 -42 -91 0 -42 40 -82 84 -82 19 0 42 7
50 16 15 14 16 14 16 0 0 -9 7 -16 15 -16 12 0 15 17 15 90 0 73 -3 90 -15 90
-8 0 -15 -5 -15 -10 0 -7 -6 -7 -19 0 -20 10 -66 12 -89 3z m88 -33 c38 -38
13 -120 -38 -120 -35 0 -62 29 -62 67 0 66 57 96 100 53z"/>
<path d="M2142 3773 c-19 -7 -42 -58 -42 -91 0 -42 40 -82 84 -82 19 0 42 7
50 16 15 14 16 14 16 0 0 -9 7 -16 15 -16 12 0 15 17 15 90 0 73 -3 90 -15 90
-8 0 -15 -5 -15 -10 0 -7 -6 -7 -19 0 -20 10 -66 12 -89 3z m88 -33 c38 -38
13 -120 -38 -120 -35 0 -62 29 -62 67 0 66 57 96 100 53z"/>
<path d="M2458 3766 c-10 -7 -22 -26 -28 -41 -36 -95 80 -171 144 -94 37 44
32 102 -13 136 -21 16 -82 16 -103 -1z m90 -22 c31 -21 31 -87 0 -108 -12 -9
-30 -16 -40 -16 -28 0 -58 37 -58 72 0 59 50 86 98 52z"/>
<path d="M2640 3690 c0 -53 4 -90 10 -90 6 0 10 18 10 40 0 53 23 106 49 115
22 7 29 25 11 25 -6 0 -22 -7 -35 -16 -23 -15 -25 -15 -25 0 0 9 -4 16 -10 16
-6 0 -10 -37 -10 -90z"/>
<path d="M2760 3690 c0 -73 3 -90 15 -90 12 0 15 13 15 61 0 72 12 99 45 99
33 0 45 -27 45 -99 0 -48 3 -61 15 -61 12 0 15 13 15 61 0 71 12 99 43 99 37
0 47 -19 47 -92 0 -54 3 -68 15 -68 12 0 15 14 15 68 0 59 -3 72 -23 90 -28
26 -63 28 -88 6 -17 -15 -19 -15 -34 0 -19 19 -66 21 -83 4 -9 -9 -12 -9 -12
0 0 7 -7 12 -15 12 -12 0 -15 -17 -15 -90z"/>
<path d="M3095 3755 c-55 -54 -18 -155 56 -155 18 0 41 7 51 17 17 15 18 15
18 0 0 -10 7 -17 15 -17 12 0 15 15 15 78 0 77 -12 119 -28 95 -5 -8 -13 -9
-22 -3 -29 18 -80 11 -105 -15z m102 -17 c29 -27 30 -71 1 -98 -27 -25 -49
-25 -79 -2 -42 35 -18 122 34 122 12 0 31 -10 44 -22z"/>
<path d="M3385 3754 c-35 -38 -34 -87 4 -125 33 -32 65 -37 99 -13 21 14 22
14 22 -10 0 -13 -7 -32 -16 -40 -20 -20 -68 -21 -88 -1 -17 17 -36 20 -36 5 0
-18 49 -42 86 -42 64 0 78 25 82 147 3 91 2 105 -12 105 -9 0 -16 -5 -16 -10
0 -7 -6 -7 -19 0 -36 19 -80 12 -106 -16z m105 -14 c43 -43 7 -128 -50 -115
-33 8 -50 32 -50 69 0 59 59 87 100 46z"/>
<path d="M3692 3773 c-7 -3 -19 -18 -27 -33 -50 -97 51 -186 132 -116 60 52
19 157 -60 155 -18 0 -38 -3 -45 -6z m88 -33 c38 -38 13 -120 -38 -120 -35 0
-62 29 -62 67 0 66 57 96 100 53z"/>
<path d="M4095 3755 c-55 -54 -18 -155 56 -155 18 0 41 7 51 17 17 15 18 15
18 0 0 -10 7 -17 15 -17 12 0 15 15 15 78 0 77 -12 119 -28 95 -5 -8 -13 -9
-22 -3 -29 18 -80 11 -105 -15z m103 -15 c13 -12 22 -33 22 -50 0 -30 -33 -70
-58 -70 -46 0 -79 51 -61 97 18 48 60 57 97 23z"/>
<path d="M4692 3773 c-19 -7 -42 -58 -42 -91 0 -72 100 -110 150 -57 26 28 9
35 -24 10 -27 -20 -59 -19 -79 3 -32 35 -21 42 58 42 l75 0 -6 28 c-12 54 -78
87 -132 65z m85 -35 c13 -12 23 -25 23 -30 0 -11 -91 -10 -110 2 -12 7 -12 12
4 29 25 27 54 27 83 -1z"/>
<path d="M4972 3773 c-19 -7 -42 -58 -42 -91 0 -72 100 -110 150 -57 26 28 9
35 -24 10 -27 -20 -59 -19 -79 3 -32 35 -21 42 58 42 l75 0 -6 28 c-12 54 -78
87 -132 65z m85 -35 c13 -12 23 -25 23 -30 0 -12 -108 -10 -115 3 -10 15 24
49 48 49 12 0 31 -10 44 -22z"/>
<path d="M5140 3690 c0 -73 3 -90 15 -90 12 0 15 14 15 64 0 71 14 96 54 96
35 0 48 -23 54 -95 6 -83 22 -84 22 -1 0 96 -46 140 -111 106 -13 -7 -19 -7
-19 0 0 5 -7 10 -15 10 -12 0 -15 -17 -15 -90z"/>
<path d="M5356 3764 c-9 -8 -16 -24 -16 -34 0 -22 36 -50 65 -50 12 0 30 -6
40 -14 16 -12 17 -16 6 -30 -18 -22 -57 -20 -81 4 -23 23 -30 25 -30 7 0 -24
35 -47 71 -47 37 0 63 15 72 41 8 25 -5 38 -59 58 -34 13 -49 25 -49 37 0 25
47 31 68 10 17 -17 37 -21 37 -8 0 37 -94 56 -124 26z"/>
<path d="M5552 3773 c-19 -7 -42 -58 -42 -91 0 -72 100 -110 150 -57 26 28 9
35 -24 10 -27 -20 -59 -19 -79 3 -32 35 -21 42 58 42 l75 0 -6 28 c-12 54 -78
87 -132 65z m85 -35 c13 -12 23 -25 23 -30 0 -11 -91 -10 -110 2 -12 7 -12 12
4 29 25 27 54 27 83 -1z"/>
<path d="M5720 3690 c0 -73 3 -90 15 -90 12 0 15 14 15 64 0 71 14 96 54 96
35 0 48 -23 54 -95 6 -83 22 -84 22 -1 0 96 -46 140 -111 106 -13 -7 -19 -7
-19 0 0 5 -7 10 -15 10 -12 0 -15 -17 -15 -90z"/>
<path d="M5945 3755 c-55 -54 -18 -155 56 -155 18 0 41 7 51 17 17 15 18 15
18 0 0 -10 7 -17 15 -17 12 0 15 15 15 78 0 77 -12 119 -28 95 -5 -8 -13 -9
-22 -3 -29 18 -80 11 -105 -15z m102 -17 c29 -27 30 -71 1 -98 -27 -25 -49
-25 -79 -2 -42 35 -18 122 34 122 12 0 31 -10 44 -22z"/>
<path d="M6140 3690 c0 -73 3 -90 15 -90 12 0 15 14 15 64 0 71 14 96 54 96
35 0 48 -23 54 -95 6 -83 22 -84 22 -1 0 96 -46 140 -111 106 -13 -7 -19 -7
-19 0 0 5 -7 10 -15 10 -12 0 -15 -17 -15 -90z"/>
<path d="M6340 3771 c0 -12 26 -21 61 -21 16 0 29 -3 29 -6 0 -4 -20 -31 -45
-60 -64 -74 -61 -84 26 -84 44 0 68 4 64 10 -3 6 -21 10 -38 10 -63 0 -65 13
-10 77 27 32 48 64 46 71 -5 14 -133 17 -133 3z"/>
<path d="M6538 3766 c-24 -18 -40 -65 -33 -96 15 -58 75 -87 126 -60 13 7 19
7 19 0 0 -5 7 -10 15 -10 12 0 15 17 15 90 0 73 -3 90 -15 90 -8 0 -15 -5 -15
-12 0 -9 -3 -9 -12 0 -16 16 -78 15 -100 -2z m90 -22 c16 -11 22 -25 22 -54 0
-62 -58 -92 -100 -50 -38 38 -13 120 38 120 10 0 28 -7 40 -16z"/>
<path d="M7052 3773 c-19 -7 -42 -58 -42 -91 0 -72 100 -110 150 -57 26 28 9
35 -24 10 -27 -20 -59 -19 -79 3 -32 35 -21 42 58 42 l75 0 -6 28 c-12 54 -78
87 -132 65z m85 -35 c13 -12 23 -25 23 -30 0 -12 -108 -10 -115 3 -10 15 24
49 48 49 12 0 31 -10 44 -22z"/>
<path d="M7300 3690 c0 -73 3 -90 15 -90 12 0 15 15 15 74 0 77 -6 106 -21
106 -5 0 -9 -40 -9 -90z"/>
<path d="M7590 3690 c0 -53 4 -90 10 -90 6 0 10 37 10 90 0 53 -4 90 -10 90
-6 0 -10 -37 -10 -90z"/>
<path d="M7688 3766 c-10 -7 -22 -26 -28 -41 -36 -95 80 -171 144 -94 37 44
32 102 -13 136 -21 16 -82 16 -103 -1z m90 -22 c16 -11 22 -25 22 -54 0 -41
-26 -70 -62 -70 -28 0 -58 37 -58 72 0 59 50 86 98 52z"/>
<path d="M7870 3690 c0 -53 4 -90 10 -90 6 0 10 24 10 53 0 88 38 130 81 91
15 -13 19 -31 19 -81 0 -44 4 -63 13 -63 8 0 12 20 13 64 0 67 14 96 44 96 33
0 50 -33 50 -98 0 -51 3 -62 16 -62 14 0 16 10 12 72 -5 59 -10 75 -28 90 -27
22 -58 23 -87 3 -18 -13 -22 -13 -33 0 -14 17 -53 20 -81 5 -13 -7 -19 -7 -19
0 0 5 -4 10 -10 10 -6 0 -10 -37 -10 -90z"/>
<path d="M8208 3766 c-24 -18 -40 -65 -33 -96 15 -58 75 -87 126 -60 13 7 19
7 19 0 0 -5 7 -10 15 -10 12 0 15 17 15 90 0 73 -3 90 -15 90 -8 0 -15 -5 -15
-12 0 -9 -3 -9 -12 0 -16 16 -78 15 -100 -2z m90 -22 c16 -11 22 -25 22 -54 0
-62 -58 -92 -100 -50 -38 38 -13 120 38 120 10 0 28 -7 40 -16z"/>
<path d="M8406 3764 c-9 -8 -16 -24 -16 -34 0 -22 36 -50 65 -50 12 0 30 -6
40 -14 16 -12 17 -16 6 -30 -18 -22 -57 -20 -81 4 -23 23 -30 25 -30 7 0 -24
35 -47 71 -47 37 0 63 15 72 41 8 25 -5 38 -59 58 -34 13 -49 25 -49 37 0 25
47 31 68 10 17 -17 37 -21 37 -8 0 37 -94 56 -124 26z"/>
<path d="M4912 3349 c-14 -5 -25 -20 -28 -39 -4 -16 -13 -30 -20 -30 -8 0 -14
-4 -14 -10 0 -5 7 -10 15 -10 12 0 15 -16 15 -80 0 -64 3 -80 15 -80 12 0 15
16 15 80 0 73 2 80 20 80 11 0 20 5 20 10 0 6 -9 10 -20 10 -14 0 -20 7 -20
21 0 12 8 23 20 26 20 5 26 18 13 26 -5 3 -18 1 -31 -4z"/>
<path d="M4795 3340 c-7 -12 2 -30 16 -30 5 0 9 9 9 20 0 21 -15 27 -25 10z"/>
<path d="M4980 3331 c0 -12 6 -21 16 -21 9 0 14 7 12 17 -5 25 -28 28 -28 4z"/>
<path d="M5610 3305 c0 -42 -11 -58 -25 -35 -3 6 -23 10 -44 10 -52 0 -84 -35
-84 -90 0 -55 33 -90 83 -90 20 0 41 5 48 12 9 9 12 9 12 0 0 -7 7 -12 15 -12
13 0 15 21 15 125 0 77 -4 125 -10 125 -5 0 -10 -20 -10 -45z m-21 -71 c27
-35 26 -59 -4 -89 -30 -31 -52 -31 -82 -3 -29 27 -30 71 -3 98 28 28 64 25 89
-6z"/>
<path d="M4690 3310 c0 -20 -5 -30 -15 -30 -8 0 -15 -4 -15 -10 0 -5 7 -10 15
-10 12 0 15 -16 15 -80 0 -64 3 -80 15 -80 12 0 15 16 15 80 0 73 2 80 20 80
11 0 20 5 20 10 0 6 -9 10 -20 10 -16 0 -20 7 -20 30 0 20 -5 30 -15 30 -10 0
-15 -10 -15 -30z"/>
<path d="M4178 3266 c-67 -51 -30 -166 54 -166 37 0 78 26 78 50 0 15 -7 12
-40 -12 -38 -28 -80 -17 -94 25 -14 38 3 79 37 91 22 8 33 6 58 -13 38 -28 50
-19 19 14 -26 28 -83 34 -112 11z"/>
<path d="M4382 3273 c-19 -7 -42 -58 -42 -91 0 -72 100 -110 150 -57 26 28 9
35 -24 10 -27 -20 -59 -19 -79 3 -32 35 -21 42 58 42 l75 0 -6 28 c-12 54 -78
87 -132 65z m85 -35 c13 -12 23 -25 23 -30 0 -12 -108 -10 -115 3 -10 15 24
49 48 49 12 0 31 -10 44 -22z"/>
<path d="M4550 3190 c0 -73 3 -90 15 -90 12 0 15 13 15 60 0 47 4 64 20 80 11
11 25 20 30 20 6 0 10 5 10 10 0 15 -21 12 -42 -6 -16 -16 -18 -16 -24 0 -15
38 -24 10 -24 -74z"/>
<path d="M4800 3190 c0 -53 4 -90 10 -90 6 0 10 37 10 90 0 53 -4 90 -10 90
-6 0 -10 -37 -10 -90z"/>
<path d="M4980 3190 c0 -73 3 -90 15 -90 12 0 15 15 15 74 0 77 -6 106 -21
106 -5 0 -9 -40 -9 -90z"/>
<path d="M5078 3266 c-67 -51 -30 -166 54 -166 37 0 78 26 78 50 0 15 -9 12
-37 -10 -14 -11 -34 -20 -44 -20 -49 0 -75 72 -43 118 19 28 53 28 88 1 35
-28 46 -16 16 16 -26 28 -83 34 -112 11z"/>
<path d="M5282 3273 c-19 -7 -42 -58 -42 -91 0 -42 40 -82 84 -82 19 0 42 7
50 16 15 14 16 14 16 0 0 -9 7 -16 15 -16 12 0 15 17 15 90 0 73 -3 90 -15 90
-8 0 -15 -5 -15 -10 0 -7 -6 -7 -19 0 -20 10 -66 12 -89 3z m88 -33 c38 -38
13 -120 -38 -120 -35 0 -62 29 -62 67 0 66 57 96 100 53z"/>
<path d="M5708 3266 c-24 -18 -40 -65 -33 -96 15 -58 75 -87 126 -60 13 7 19
7 19 0 0 -5 7 -10 15 -10 12 0 15 17 15 90 0 73 -3 90 -15 90 -8 0 -15 -5 -15
-12 0 -9 -3 -9 -12 0 -16 16 -78 15 -100 -2z m90 -22 c16 -11 22 -25 22 -54 0
-62 -58 -92 -100 -50 -38 38 -13 120 38 120 10 0 28 -7 40 -16z"/>
</g>
</svg>
